<svg id="Layer_1" data-name="Layer 1" xmlns="http://www.w3.org/2000/svg" viewBox="0 0 148 38"><defs><style>.cls-1{fill:#0b36a8;}.cls-2{fill:#fff;}</style></defs><title>logo</title><ellipse class="cls-1" cx="18.927" cy="19" rx="18.927" ry="19"/><path class="cls-2" d="M20.808,12.644a5.2,5.2,0,0,0-.45.869Q20,14.287,19.48,15.49t-1.15,2.7q-0.629,1.5-1.268,3.048,1.02-1.38,2.063-2.8t2.015-2.727q0.972-1.309,1.849-2.453t1.565-1.988q0.687-.844,1.174-1.333A1.442,1.442,0,0,1,26.4,9.453a1.183,1.183,0,0,1,.462.227,3.55,3.55,0,0,1,.676.6,2.636,2.636,0,0,1,.51.845,1.283,1.283,0,0,1-.012.953q-0.285.691-.664,1.607T26.57,15.633q-0.427,1.036-.877,2.119t-0.854,2.083q-0.4,1-.747,1.87t-0.557,1.464q-0.427.977-.759,1.811t-0.522,1.476a3.986,3.986,0,0,0-.19,1.1,0.707,0.707,0,0,0,.237.619,0.763,0.763,0,0,0,.842.071,3.6,3.6,0,0,0,1.031-.75,11.268,11.268,0,0,0,1.115-1.3q0.569-.762,1.09-1.56t0.949-1.548q0.427-.75.711-1.273a0.333,0.333,0,0,1,.355-0.06,1.786,1.786,0,0,1,.522.214,1.619,1.619,0,0,1,.427.357,0.386,0.386,0,0,1,.095.393q-0.119.311-.427,0.929a15.675,15.675,0,0,1-.782,1.369q-0.475.75-1.079,1.536a9.706,9.706,0,0,1-1.316,1.405,6.211,6.211,0,0,1-1.494.976,2.78,2.78,0,0,1-1.589.238A3.059,3.059,0,0,1,21,28.491a1.943,1.943,0,0,1-.581-1.286,5.2,5.2,0,0,1,.225-1.785q0.284-1.012.664-2.155,0.427-1.358.948-2.667t1.008-2.477q0.486-1.167.913-2.155t0.688-1.679q-0.19.31-.854,1.143T22.421,17.4l-2.016,2.464q-1.09,1.334-2.145,2.619T16.268,24.9q-0.936,1.132-1.529,1.894-0.475,1.071-.759,1.7a5.586,5.586,0,0,1-.332.679,0.671,0.671,0,0,1-.4-0.048,5.4,5.4,0,0,1-.687-0.25,5.938,5.938,0,0,1-.64-0.321,0.466,0.466,0,0,1-.284-0.285q0.4-.833.7-1.5T13,25.276q0.368-.82.723-1.631,0.64-1.523,1.185-2.857t1.055-2.6q0.51-1.262,1.008-2.536t1.043-2.679a3.482,3.482,0,0,1-.711.75,8.787,8.787,0,0,1-1.233.857,8.464,8.464,0,0,1-1.553.7,5.18,5.18,0,0,1-1.672.286,3.751,3.751,0,0,1-2.323-.714,5.106,5.106,0,0,1-1.47-1.7,5.531,5.531,0,0,1-.629-2.024,3.1,3.1,0,0,1,.225-1.7,1.052,1.052,0,0,1,.226-0.31,3.289,3.289,0,0,1,.3-0.238,0.509,0.509,0,0,1,.51-0.036,3.3,3.3,0,0,1,1.316.774q0.236,0.238.142,0.357h0.024a1.338,1.338,0,0,1-.213.107,0.258,0.258,0,0,0-.142.131,4.593,4.593,0,0,0-.913,2.048,1.2,1.2,0,0,0,.391,1.072,1.812,1.812,0,0,0,1.115.345,4.179,4.179,0,0,0,1.256-.155A17.03,17.03,0,0,0,15.9,12.3q1.423-.726,2.846-1.417a1.009,1.009,0,0,1,.794-0.012,2.647,2.647,0,0,1,.83.453,1.829,1.829,0,0,1,.533.667A0.557,0.557,0,0,1,20.808,12.644Z"/><path class="cls-2" d="M69.154,30.44h-3.8L53.9,12.973V30.44H50.094V6.8H53.9L65.35,24.338V6.8h3.8V30.44Z"/><path class="cls-2" d="M85.411,12.973a6.678,6.678,0,0,1,2.5,3.285V11.967h3.806V30.44H87.915V26.149a6.672,6.672,0,0,1-2.5,3.285,7.252,7.252,0,0,1-4.272,1.24,8.131,8.131,0,0,1-4.29-1.14,7.773,7.773,0,0,1-2.954-3.285,11.229,11.229,0,0,1-1.068-5.062,11.145,11.145,0,0,1,1.068-5.029,7.777,7.777,0,0,1,2.954-3.286,8.131,8.131,0,0,1,4.29-1.14A7.256,7.256,0,0,1,85.411,12.973Zm-7.16,3.738a6.3,6.3,0,0,0-1.519,4.476,6.3,6.3,0,0,0,1.519,4.476,5.285,5.285,0,0,0,4.056,1.626,5.519,5.519,0,0,0,2.871-.754,5.36,5.36,0,0,0,2-2.129,6.74,6.74,0,0,0,.734-3.219,6.762,6.762,0,0,0-.734-3.2,5.334,5.334,0,0,0-2-2.146,5.51,5.51,0,0,0-2.871-.754A5.287,5.287,0,0,0,78.251,16.711Z"/><path class="cls-2" d="M124.517,13.744a8.342,8.342,0,0,1,1.952,5.934V30.44h-3.8V20.081a5.367,5.367,0,0,0-1.2-3.738,4.238,4.238,0,0,0-3.305-1.324,4.609,4.609,0,0,0-3.555,1.425,5.94,5.94,0,0,0-1.319,4.174V30.44h-3.806V20.081a5.367,5.367,0,0,0-1.2-3.738,4.236,4.236,0,0,0-3.3-1.324,4.606,4.606,0,0,0-3.555,1.425,5.936,5.936,0,0,0-1.319,4.174V30.44h-3.8V11.967h3.8v3.855a5.87,5.87,0,0,1,2.338-3.084,6.841,6.841,0,0,1,3.839-1.073,6.954,6.954,0,0,1,3.989,1.14,6.452,6.452,0,0,1,2.453,3.286,6.672,6.672,0,0,1,2.571-3.252,7.083,7.083,0,0,1,4.005-1.173A6.828,6.828,0,0,1,124.517,13.744Z"/><path class="cls-2" d="M147.867,21.958H133.713a5.82,5.82,0,0,0,1.568,4.225,5.119,5.119,0,0,0,3.639,1.375,5.275,5.275,0,0,0,3.221-.973A4.017,4.017,0,0,0,143.761,24h4.072a7.842,7.842,0,0,1-4.573,5.816,9.912,9.912,0,0,1-4.172.854,9.569,9.569,0,0,1-4.724-1.14,8.085,8.085,0,0,1-3.221-3.285,10.432,10.432,0,0,1-1.168-5.062,10.356,10.356,0,0,1,1.168-5.029,8.089,8.089,0,0,1,3.221-3.286,10.423,10.423,0,0,1,9.446-.017,7.8,7.8,0,0,1,3.1,3.084A8.885,8.885,0,0,1,148,20.315,8.949,8.949,0,0,1,147.867,21.958Zm-4.323-4.777a4.308,4.308,0,0,0-1.87-1.811,5.753,5.753,0,0,0-2.586-.587,5.328,5.328,0,0,0-3.739,1.375,5.625,5.625,0,0,0-1.635,4.056h10.448A5.7,5.7,0,0,0,143.544,17.181Z"/></svg>