<svg id="Layer_3" data-name="Layer 3" xmlns="http://www.w3.org/2000/svg" viewBox="0 0 160 44"><defs><style>.cls-1{fill:#f04551;}</style></defs><title>logo</title><path class="cls-1" d="M0.99,43.875a0.878,0.878,0,0,1-.99-1V1.246a0.92,0.92,0,0,1,.743-1A0.269,0.269,0,0,0,.866.218,0.276,0.276,0,0,1,.99.187a0.97,0.97,0,0,1,.866.5l25.5,41.632a0.92,0.92,0,0,1-.309,1.433,1.948,1.948,0,0,1-.557.125,0.968,0.968,0,0,1-.866-0.5L2.042,4.861V42.877a0.927,0.927,0,0,1-.309.718A1.071,1.071,0,0,1,.99,43.875Zm6.5-4.113a0.906,0.906,0,0,1-1.052,1,0.878,0.878,0,0,1-.99-1V22.124a0.908,0.908,0,0,1,.99-1.06,0.934,0.934,0,0,1,1.052,1.06V39.762ZM9.037,4.8a0.919,0.919,0,0,1,.309-1.433A1.014,1.014,0,0,1,9.9,3.24a0.913,0.913,0,0,1,.866.436L25.5,27.3V1.246A1.086,1.086,0,0,1,25.78.5,0.914,0.914,0,0,1,26.491.187,1.014,1.014,0,0,1,27.234.5a1.028,1.028,0,0,1,.309.748v29.6a0.919,0.919,0,0,1-.743,1,1.353,1.353,0,0,1-1.176-.436ZM31.629,2.306a0.942,0.942,0,0,1-.681-0.561A1.274,1.274,0,0,1,30.886.872h0.062A0.966,0.966,0,0,1,32,.062a0.248,0.248,0,0,1,.155.031,0.238,0.238,0,0,0,.155.031,1.071,1.071,0,0,1,.743,1.433l-0.062.062a0.955,0.955,0,0,1-1.052.748Zm0.309,1.37a0.986,0.986,0,0,1,.774.312,1.086,1.086,0,0,1,.279.748V42.877a0.907,0.907,0,0,1-1.052,1,0.878,0.878,0,0,1-.99-1V4.736a1.088,1.088,0,0,1,.278-0.748A0.914,0.914,0,0,1,31.938,3.677Z"/><path class="cls-1" d="M39.86,43.688a1.038,1.038,0,0,1-.928-1.371l15.227-41.2a1.031,1.031,0,0,1,.99-0.685h0.867a1.034,1.034,0,0,1,.99.685l7.365,22.623a1.1,1.1,0,0,1-.062.811,0.953,0.953,0,0,1-.619.5,0.246,0.246,0,0,0-.155.031,0.235,0.235,0,0,1-.154.031,1.039,1.039,0,0,1-.991-0.748L55.52,3.3,40.851,43.065A1.036,1.036,0,0,1,39.86,43.688Zm5.818,0.124a1.479,1.479,0,0,1-.928-0.592,1.136,1.136,0,0,1-.124-0.9,1.084,1.084,0,0,1,1.052-.81,0.437,0.437,0,0,1,.186.031,0.405,0.405,0,0,0,.186.031,1.162,1.162,0,0,1,.619.592A1.185,1.185,0,0,1,46.73,43v0.063A1.075,1.075,0,0,1,45.678,43.812Zm1.114-3.427a1.038,1.038,0,0,1-.928-1.371l8.6-25.552a1.113,1.113,0,0,1,.99-0.686,0.438,0.438,0,0,1,.186.031,0.264,0.264,0,0,0,.124.031,0.933,0.933,0,0,1,.619.53,1.028,1.028,0,0,1,.062.779L47.783,39.7A1.033,1.033,0,0,1,46.792,40.385Zm21.478-.063a0.864,0.864,0,0,1-.928-0.685l-1.547-4.674H53.477a0.91,0.91,0,0,1-.712-0.312,1.081,1.081,0,0,1-.279-0.748,0.878,0.878,0,0,1,.99-1h13.06a1.032,1.032,0,0,1,.99.685l1.733,5.422a0.98,0.98,0,0,1-.681,1.246Zm6.623,3.366a1.035,1.035,0,0,1-.991-0.623L68.951,29.479H55.21a0.983,0.983,0,0,1-.774-0.312,1.083,1.083,0,0,1-.278-0.748,0.906,0.906,0,0,1,1.052-1H69.694a1,1,0,0,1,.928.56l5.2,14.335a0.918,0.918,0,0,1-.619,1.308ZM68.085,25.054a1.032,1.032,0,0,1-.991-0.686L60.9,5.235a0.918,0.918,0,0,1,.619-1.308,0.693,0.693,0,0,1,.309-0.063,0.964,0.964,0,0,1,.99.686l6.251,19.133a1.09,1.09,0,0,1-.062.81,0.945,0.945,0,0,1-.619.5Z"/><path class="cls-1" d="M86.22,43.937a1,1,0,0,1-.742-0.312,1.017,1.017,0,0,1-.309-0.748V1.371a0.934,0.934,0,0,1,.8-1,2.053,2.053,0,0,1,.649.093,0.849,0.849,0,0,1,.465.468L101.694,29.1l13.865-24.93a0.968,0.968,0,0,1,.866-0.5,0.721,0.721,0,0,1,.5.125,0.951,0.951,0,0,1,.5.592,1.025,1.025,0,0,1-.062.78L102.56,31.785a0.832,0.832,0,0,1-.928.5,0.814,0.814,0,0,1-.866-0.5L87.211,5.609V42.877a1.079,1.079,0,0,1-.279.748A0.911,0.911,0,0,1,86.22,43.937Zm5.447,0a0.91,0.91,0,0,1-.712-0.312,1.083,1.083,0,0,1-.278-0.748V23.371a0.878,0.878,0,0,1,.99-1,1.07,1.07,0,0,1,.743.28,0.926,0.926,0,0,1,.309.717V42.877a1.025,1.025,0,0,1-.309.748A1.01,1.01,0,0,1,91.667,43.937Zm10.647-23.558a1.019,1.019,0,0,1-.928-0.5L93.277,5.173a0.88,0.88,0,0,1-.124-0.78,1.189,1.189,0,0,1,.5-0.654,2.014,2.014,0,0,1,.5-0.125,0.877,0.877,0,0,1,.867.56l8.17,14.646a0.885,0.885,0,0,1,.124.779,1.185,1.185,0,0,1-.5.655A1.979,1.979,0,0,1,102.313,20.379Zm22.1,23.558a1.007,1.007,0,0,1-.743-0.312,1.021,1.021,0,0,1-.309-0.748V5.422l-17.95,33.094a1,1,0,0,1-.928.56,1.053,1.053,0,0,1-.5-0.187,0.946,0.946,0,0,1-.5-0.592,0.883,0.883,0,0,1,.124-0.78L123.482,0.872a0.861,0.861,0,0,1,.5-0.405,2.357,2.357,0,0,1,.681-0.093,0.92,0.92,0,0,1,.743,1V42.877a1.083,1.083,0,0,1-.278.748A0.911,0.911,0,0,1,124.41,43.937Zm-5.2-2.118a0.936,0.936,0,0,1,.619.53,1.342,1.342,0,0,1,.062.9A0.955,0.955,0,0,1,118.84,44a1.483,1.483,0,0,1-.928-0.593,1.137,1.137,0,0,1-.124-0.9,1.075,1.075,0,0,1,1.052-.748A0.855,0.855,0,0,1,119.211,41.819Zm-0.371-1.371a0.878,0.878,0,0,1-.99-1V23.371a0.878,0.878,0,0,1,.99-1,1.072,1.072,0,0,1,.743.28,0.926,0.926,0,0,1,.309.717V39.45a0.928,0.928,0,0,1-.309.717A1.072,1.072,0,0,1,118.84,40.447Z"/><path class="cls-1" d="M136.48,20.317A1,1,0,0,1,135.737,20a1.019,1.019,0,0,1-.309-0.747V1.06a1.024,1.024,0,0,1,.309-0.748A1.007,1.007,0,0,1,136.48,0a0.911,0.911,0,0,1,.712.312,1.086,1.086,0,0,1,.278.748v17.2h15.907a1.067,1.067,0,0,1,.743.281,0.926,0.926,0,0,1,.309.717,1.023,1.023,0,0,1-.309.747,1.007,1.007,0,0,1-.743.312h-16.9Zm0,23.559a1.011,1.011,0,0,1-.743-0.312,1.023,1.023,0,0,1-.309-0.748V24.742a1.024,1.024,0,0,1,.309-0.748,1.011,1.011,0,0,1,.743-0.312h16.9a1.014,1.014,0,0,1,.743.312,1.028,1.028,0,0,1,.309.748,0.925,0.925,0,0,1-.309.717,1.07,1.07,0,0,1-.743.28H137.47v16.08h21.478a0.879,0.879,0,0,1,.991,1,1.085,1.085,0,0,1-.279.748,0.914,0.914,0,0,1-.712.312H136.48Zm5.075-41.632a0.91,0.91,0,0,1-.712-0.312,1.083,1.083,0,0,1-.278-0.748,0.878,0.878,0,0,1,.99-1h17.393a1.07,1.07,0,0,1,.743.28,0.928,0.928,0,0,1,.309.717,1.025,1.025,0,0,1-.309.748,1.007,1.007,0,0,1-.743.312H141.555Zm17.269,3.366a1.01,1.01,0,0,1,.743.312,1.027,1.027,0,0,1,.309.747,0.925,0.925,0,0,1-.309.717,1.067,1.067,0,0,1-.743.281H142.792v6.98a1.021,1.021,0,0,1-.309.748,1.01,1.01,0,0,1-.742.312,0.91,0.91,0,0,1-.712-0.312,1.079,1.079,0,0,1-.279-0.748V6.668a1.082,1.082,0,0,1,.279-0.747,0.91,0.91,0,0,1,.712-0.312h17.083Zm-17.083,22.5a1.07,1.07,0,0,1,.742.28,1,1,0,0,1,.309.78v7.354h12.38a1.015,1.015,0,0,1,.743.312,1.028,1.028,0,0,1,.309.748,0.925,0.925,0,0,1-.309.717,1.072,1.072,0,0,1-.743.28H141.741a0.878,0.878,0,0,1-.991-1V29.167A0.907,0.907,0,0,1,141.741,28.107Zm17.269,8.351a0.943,0.943,0,0,1,.619.53,1.192,1.192,0,0,1,.062.841v0.063a1.075,1.075,0,0,1-1.052.747,1.479,1.479,0,0,1-.928-0.592,1.138,1.138,0,0,1-.124-0.9,1.076,1.076,0,0,1,1.052-.748A0.879,0.879,0,0,1,159.01,36.458Z"/></svg>